<svg width="194" height="163" viewBox="0 0 194 163" fill="none" xmlns="http://www.w3.org/2000/svg">
<path d="M137 62.2984C137 26.9923 99.9988 1.46642 98.423 0.394866C98.3762 0.361725 98.3168 0.35436 98.2658 0.324901C98.1314 0.251713 97.9892 0.19005 97.841 0.140785C97.7046 0.0896397 97.5622 0.0513698 97.4163 0.026634C97.276 0.0058504 97.1337 -0.0027841 96.9915 0.000857849C96.8493 -0.00290727 96.707 0.00572809 96.5667 0.026634C96.2745 0.0881764 95.995 0.188804 95.7384 0.324901C95.6875 0.35436 95.628 0.361725 95.577 0.394866C94.0012 1.46642 57 26.9923 57 62.2984C57 93.6975 89.1504 103.126 97 105L97.0883 104.172C96.655 103.796 97.0883 104.703 97.0883 104.172C96.4755 104.172 97.5216 104.548 97.0883 104.172C96.655 104.548 97.7011 104.172 97.0883 104.172C97.0883 104.703 97.5216 103.796 97.0883 104.172L97 105C104.854 103.115 137 93.6975 137 62.2984ZM99.3107 100.624V84.153L114.976 70.5762C115.191 70.3903 115.361 70.1695 115.477 69.9265C115.594 69.6835 115.654 69.423 115.654 69.1599C115.654 68.8967 115.595 68.6362 115.479 68.393C115.363 68.1499 115.193 67.9289 114.978 67.7427C114.764 67.5565 114.509 67.4088 114.229 67.308C113.948 67.2071 113.648 67.1551 113.344 67.1549C113.041 67.1548 112.74 67.2064 112.46 67.3069C112.179 67.4075 111.924 67.5549 111.71 67.7409L99.3107 78.4822V56.2667L114.976 42.69C115.201 42.5061 115.381 42.285 115.506 42.0397C115.63 41.7944 115.697 41.53 115.701 41.262C115.706 40.994 115.648 40.7279 115.532 40.4796C115.416 40.2312 115.243 40.0056 115.025 39.8161C114.806 39.6266 114.546 39.477 114.259 39.3763C113.973 39.2755 113.666 39.2256 113.357 39.2296C113.048 39.2335 112.743 39.2912 112.46 39.3992C112.177 39.5072 111.922 39.6633 111.71 39.8583L99.3107 50.6033V33.2964C99.3107 32.7651 99.0673 32.2556 98.6339 31.8799C98.2006 31.5043 97.6128 31.2932 97 31.2932C96.3872 31.2932 95.7994 31.5043 95.3661 31.8799C94.9327 32.2556 94.6893 32.7651 94.6893 33.2964V50.607L82.2904 39.8583C81.8531 39.5008 81.2723 39.3052 80.6713 39.3128C80.0703 39.3205 79.4963 39.5309 79.0713 39.8993C78.6463 40.2678 78.4036 40.7653 78.3948 41.2863C78.3859 41.8074 78.6116 42.3109 79.024 42.69L94.6893 56.2704V78.4822L82.2904 67.7335C82.0757 67.5476 81.8208 67.4001 81.5403 67.2996C81.2598 67.1991 80.9592 67.1474 80.6557 67.1476C80.3522 67.1477 80.0517 67.1997 79.7714 67.3006C79.491 67.4014 79.2364 67.5492 79.0219 67.7353C78.8074 67.9215 78.6373 68.1425 78.5214 68.3856C78.4054 68.6288 78.3458 68.8894 78.346 69.1525C78.3462 69.4156 78.4062 69.6761 78.5225 69.9191C78.6388 70.1622 78.8092 70.3829 79.024 70.5689L94.6893 84.153V100.602C86.3767 98.4256 61.6172 89.658 61.6172 62.3058C61.6172 32.6925 90.3312 9.56385 97.0043 4.59271C103.677 9.56017 132.383 32.6557 132.383 62.3058C132.383 89.9858 107.683 98.514 99.3107 100.624Z" fill="#1B5E20"/>
<path d="M5.2 124.76L2 124.28V122.28H9.44L22.76 141.8L25 146.04V124.76L21.52 124.28V122.28H30.96V124.28L27.76 124.76V152H24.6L11 132.04L7.92 126.76V149.64L11.72 150.04V152H2V150.04L5.2 149.6V124.76ZM51.9531 152.36C51.2065 152.36 50.6465 152.213 50.2731 151.92C49.9265 151.627 49.7531 151.147 49.7531 150.48V149.12C48.8731 150 47.7665 150.773 46.4331 151.44C45.1265 152.107 43.8065 152.44 42.4731 152.44C39.9931 152.44 38.2331 151.773 37.1931 150.44C36.1531 149.107 35.6331 146.907 35.6331 143.84V132.24L33.3931 131.6V129.84L38.9931 129.32H39.0331L39.7931 129.8V143.52C39.7931 145.067 39.8998 146.28 40.1131 147.16C40.3531 148.013 40.7531 148.653 41.3131 149.08C41.8998 149.48 42.7398 149.68 43.8331 149.68C44.8998 149.68 45.8998 149.453 46.8331 149C47.7665 148.547 48.5798 148.013 49.2731 147.4V132.24L46.3931 131.6V129.84L52.4731 129.32H52.5131L53.4331 129.8V149.96H55.8331L55.7931 151.76C55.0465 151.947 54.3931 152.093 53.8331 152.2C53.2998 152.307 52.6731 152.36 51.9531 152.36ZM65.8666 152.4C64.3466 152.4 63.2132 152.053 62.4666 151.36C61.7199 150.667 61.3466 149.48 61.3466 147.8V132.44H58.4666V130.64C58.5999 130.613 58.9732 130.52 59.5866 130.36C60.1999 130.2 60.6132 130.053 60.8266 129.92C61.2532 129.68 61.5866 129.2 61.8266 128.48C62.0399 127.973 62.2932 127.16 62.5866 126.04C62.8799 124.92 63.0532 124.253 63.1066 124.04H65.4666L65.5466 129.8H72.2266V132.44H65.5466V144.72C65.5466 146.24 65.5866 147.307 65.6666 147.92C65.7732 148.533 65.9732 148.933 66.2666 149.12C66.5866 149.307 67.1199 149.4 67.8666 149.4C68.5866 149.4 69.3732 149.307 70.2266 149.12C71.1066 148.933 71.7866 148.733 72.2666 148.52L72.8666 150.32C72.2266 150.8 71.1866 151.267 69.7466 151.72C68.3332 152.173 67.0399 152.4 65.8666 152.4ZM75.3956 150.04L78.3956 149.8V132.88L75.5156 132.16V130L81.0356 129.28H81.1156L81.9956 130V130.72L81.8756 133.84H81.9956C82.2623 133.387 82.7423 132.8 83.4356 132.08C84.129 131.36 85.0223 130.707 86.1156 130.12C87.209 129.507 88.3956 129.2 89.6756 129.2C90.209 129.2 90.649 129.267 90.9956 129.4V133.88C90.809 133.747 90.5023 133.627 90.0756 133.52C89.6756 133.387 89.2223 133.32 88.7156 133.32C86.5023 133.32 84.449 134 82.5556 135.36V149.76L87.6356 150.08V152H75.3956V150.04ZM98.3559 125.8C97.5026 125.8 96.8626 125.56 96.4359 125.08C96.0093 124.6 95.7959 123.987 95.7959 123.24C95.7959 122.387 96.0493 121.68 96.5559 121.12C97.0893 120.56 97.8093 120.28 98.7159 120.28C99.6226 120.28 100.289 120.52 100.716 121C101.143 121.48 101.356 122.093 101.356 122.84C101.356 123.747 101.089 124.467 100.556 125C100.049 125.533 99.3293 125.8 98.3959 125.8H98.3559ZM96.7559 132.88L93.7159 132.16V130.04L99.9159 129.28H99.9959L100.916 130V149.72L104.116 150.04V152H93.5159V150.04L96.7559 149.68V132.88ZM105.076 120L111.476 119.24H111.556L112.476 119.84V131.88C113.276 131.107 114.223 130.467 115.316 129.96C116.436 129.453 117.676 129.2 119.036 129.2C120.636 129.2 122.09 129.587 123.396 130.36C124.73 131.133 125.783 132.333 126.556 133.96C127.356 135.587 127.756 137.64 127.756 140.12C127.756 142.413 127.276 144.493 126.316 146.36C125.383 148.227 124.036 149.707 122.276 150.8C120.516 151.893 118.476 152.44 116.156 152.44C114.316 152.44 112.636 152.267 111.116 151.92C109.596 151.547 108.676 151.213 108.356 150.92V122.12L105.076 121.68V120ZM117.396 132.04C116.383 132.04 115.436 132.28 114.556 132.76C113.703 133.213 113.01 133.733 112.476 134.32V149.04C112.636 149.413 113.09 149.72 113.836 149.96C114.61 150.173 115.476 150.28 116.436 150.28C118.49 150.28 120.143 149.453 121.396 147.8C122.65 146.147 123.276 143.733 123.276 140.56C123.276 137.707 122.73 135.573 121.636 134.16C120.543 132.747 119.13 132.04 117.396 132.04ZM131.253 140.84C131.253 138.44 131.746 136.36 132.733 134.6C133.72 132.84 135.013 131.507 136.613 130.6C138.24 129.667 139.973 129.2 141.813 129.2C145.173 129.2 147.693 130.267 149.373 132.4C151.08 134.533 151.933 137.333 151.933 140.8C151.933 143.227 151.44 145.32 150.453 147.08C149.466 148.84 148.16 150.173 146.533 151.08C144.933 151.987 143.213 152.44 141.373 152.44C138.013 152.44 135.48 151.373 133.773 149.24C132.093 147.107 131.253 144.307 131.253 140.84ZM141.613 150.16C143.453 150.16 144.866 149.4 145.853 147.88C146.84 146.36 147.333 144.107 147.333 141.12C147.333 138.16 146.88 135.813 145.973 134.08C145.066 132.347 143.613 131.48 141.613 131.48C139.773 131.48 138.346 132.24 137.333 133.76C136.346 135.28 135.853 137.533 135.853 140.52C135.853 143.48 136.32 145.827 137.253 147.56C138.186 149.293 139.64 150.16 141.613 150.16ZM155.549 150.04L157.989 149.68V132.88L155.109 132.16V130L160.829 129.28L161.549 129.8L161.789 131.4L161.749 132.68C162.682 131.827 163.949 131.053 165.549 130.36C167.176 129.64 168.629 129.28 169.909 129.28C171.349 129.28 172.509 129.52 173.389 130C174.269 130.48 174.936 131.227 175.389 132.24C176.242 131.52 177.429 130.853 178.949 130.24C180.496 129.6 181.936 129.28 183.269 129.28C184.922 129.28 186.216 129.6 187.149 130.24C188.082 130.853 188.736 131.827 189.109 133.16C189.509 134.467 189.709 136.227 189.709 138.44V149.68L192.589 150.04V152H183.069V150.04L185.549 149.68V138.56C185.549 137.013 185.429 135.787 185.189 134.88C184.976 133.947 184.549 133.253 183.909 132.8C183.296 132.347 182.402 132.12 181.229 132.12C180.349 132.12 179.416 132.32 178.429 132.72C177.442 133.093 176.602 133.547 175.909 134.08C176.149 135.12 176.269 136.6 176.269 138.52V149.68L179.109 150.04V152H169.429V150.04L172.069 149.68V138.48C172.069 136.88 171.962 135.64 171.749 134.76C171.562 133.88 171.189 133.227 170.629 132.8C170.069 132.347 169.216 132.12 168.069 132.12C167.109 132.12 166.082 132.36 164.989 132.84C163.922 133.32 162.989 133.88 162.189 134.52V149.68L164.869 150.04V152H155.549V150.04Z" fill="#1B5E20"/>
</svg>
